<?xml version="1.0" standalone="no"?>
<!DOCTYPE svg PUBLIC "-//W3C//DTD SVG 20010904//EN"
 "http://www.w3.org/TR/2001/REC-SVG-20010904/DTD/svg10.dtd">
<svg version="1.0" xmlns="http://www.w3.org/2000/svg"
 width="479.000000pt" height="479.000000pt" viewBox="0 0 479.000000 479.000000"
 preserveAspectRatio="xMidYMid meet">
<metadata>
Created by potrace 1.11, written by Peter Selinger 2001-2013
</metadata>
<g transform="translate(0.000000,479.000000) scale(0.100000,-0.100000)"
fill="#000000" stroke="none">
<path d="M2217 4776 c-5 -13 -11 -15 -25 -7 -12 6 -22 7 -28 1 -6 -6 -22 -11
-37 -12 -15 -1 -27 -8 -27 -16 0 -7 -4 -11 -9 -7 -6 3 -15 -3 -21 -14 -6 -12
-16 -18 -25 -15 -8 4 -15 1 -15 -6 0 -10 -3 -10 -15 0 -8 7 -15 9 -15 4 0 -5
-14 -9 -30 -10 -17 -1 -40 -10 -52 -20 -13 -12 -18 -13 -13 -4 7 12 3 11 -18
-3 -15 -9 -27 -15 -27 -11 0 4 -7 1 -15 -6 -8 -7 -15 -8 -15 -3 0 6 -11 8 -25
5 -14 -2 -22 -9 -19 -14 3 -5 -3 -12 -15 -15 -12 -3 -21 -10 -21 -15 0 -5 -4
-6 -10 -3 -5 3 -10 1 -10 -5 0 -6 -4 -8 -10 -5 -5 3 -10 1 -10 -6 0 -7 -3 -10
-6 -6 -4 3 -13 -1 -21 -9 -9 -8 -22 -13 -29 -10 -8 3 -14 -1 -14 -9 0 -9 -6
-12 -15 -9 -8 4 -15 1 -15 -6 0 -6 -4 -8 -10 -5 -5 3 -10 1 -10 -4 0 -6 -9
-11 -19 -11 -11 0 -23 -4 -26 -10 -3 -5 -17 -10 -31 -10 -14 0 -23 -4 -20 -9
4 -5 -3 -7 -14 -4 -12 3 -20 0 -20 -6 0 -7 -4 -10 -9 -6 -6 3 -14 -3 -20 -12
-6 -10 -11 -14 -11 -8 0 5 -7 -1 -16 -14 -10 -14 -23 -21 -34 -18 -13 3 -17 0
-13 -9 3 -9 -1 -14 -12 -14 -9 0 -14 -4 -11 -8 2 -4 -5 -14 -16 -21 -18 -11
-20 -11 -15 3 6 15 4 15 -17 1 -23 -15 -37 -12 -32 8 2 7 1 9 -1 5 -3 -5 -10
-8 -17 -8 -6 0 -19 -9 -29 -20 -9 -11 -12 -20 -6 -20 5 0 7 -5 4 -10 -4 -6
-10 -8 -15 -5 -4 3 -13 -9 -19 -26 -6 -18 -19 -38 -28 -46 -12 -10 -13 -12 -3
-8 8 3 5 -2 -7 -11 -13 -9 -23 -21 -23 -26 0 -6 -20 -30 -44 -53 -35 -33 -42
-45 -33 -55 9 -10 9 -11 -1 -5 -15 8 -47 -22 -47 -45 0 -8 -6 -14 -12 -13 -13
3 -14 2 -18 -32 -1 -11 -11 -39 -22 -62 -15 -31 -18 -45 -9 -54 8 -9 8 -10 -3
-4 -11 6 -13 4 -8 -8 3 -10 2 -17 -3 -17 -5 0 -7 -7 -3 -16 3 -9 0 -20 -8 -25
-11 -7 -11 -9 -1 -9 7 0 10 -5 7 -10 -4 -6 -11 -8 -16 -5 -5 3 -6 -1 -3 -9 3
-9 1 -16 -5 -16 -6 0 -11 -7 -11 -16 0 -10 -6 -14 -14 -11 -9 4 -13 0 -11 -11
1 -9 -6 -25 -17 -36 -11 -10 -18 -26 -15 -37 3 -11 0 -19 -5 -19 -6 0 -4 -8 3
-17 8 -10 9 -14 2 -10 -6 4 -14 3 -18 -3 -3 -5 0 -10 7 -10 8 0 6 -5 -5 -11
-12 -7 -15 -17 -11 -33 3 -14 1 -27 -6 -31 -9 -6 -9 -10 1 -16 10 -6 11 -9 2
-9 -7 0 -13 -11 -13 -25 0 -14 -6 -25 -12 -25 -10 0 -9 -3 1 -9 9 -6 10 -10 2
-16 -9 -5 -9 -10 0 -21 9 -11 8 -15 -5 -20 -9 -3 -13 -11 -9 -18 12 -18 12
-37 1 -29 -7 4 -9 -1 -6 -14 3 -12 2 -27 -3 -34 -4 -7 -3 -19 2 -25 7 -8 6
-14 -1 -19 -5 -3 -10 -11 -10 -16 0 -6 6 -7 13 -3 9 6 9 4 -1 -8 -14 -18 -15
-116 0 -134 10 -14 0 -46 -13 -38 -5 3 -6 -2 -3 -10 3 -9 11 -13 18 -9 8 4 8
2 -1 -7 -6 -7 -9 -19 -6 -28 4 -10 2 -13 -5 -8 -8 5 -10 2 -6 -8 3 -9 11 -13
18 -9 8 5 8 3 0 -8 -6 -8 -12 -29 -12 -47 0 -18 -6 -40 -13 -48 -8 -10 -8 -14
0 -14 13 0 10 -22 -4 -32 -6 -4 -1 -8 10 -9 l20 0 -20 -9 c-13 -6 -15 -9 -5
-9 13 -1 13 -2 0 -11 -8 -5 -10 -10 -4 -10 15 0 15 -51 0 -69 -8 -12 -8 -13 1
-7 12 6 15 0 12 -20 0 -4 5 -11 13 -15 10 -7 10 -9 0 -9 -10 0 -10 -3 0 -14 7
-8 18 -12 23 -9 6 2 1 -3 -9 -11 -11 -9 -16 -16 -10 -16 5 0 9 -29 8 -65 0
-35 3 -62 8 -59 12 8 10 -10 -5 -25 -6 -8 -7 -11 -1 -8 6 3 11 -1 11 -9 0 -8
-5 -13 -11 -11 -7 3 -11 -9 -10 -34 0 -21 -3 -36 -7 -33 -11 6 -30 -31 -21
-41 4 -5 -2 -5 -12 -1 -15 5 -17 4 -8 -7 9 -10 8 -17 0 -25 -9 -9 -9 -12 1
-12 10 0 11 -3 3 -13 -13 -15 -12 -57 1 -57 5 0 5 -6 -1 -13 -6 -7 -7 -18 -2
-26 4 -8 6 -20 3 -27 -2 -6 1 -15 7 -19 9 -6 9 -10 -1 -16 -10 -6 -11 -9 -1
-9 6 0 12 -5 12 -11 0 -5 -6 -7 -12 -3 -7 4 -2 -6 12 -22 15 -17 18 -23 6 -14
-18 14 -19 14 -8 -6 6 -12 8 -24 5 -28 -3 -3 -1 -6 5 -6 6 0 9 -7 6 -15 -4 -8
-2 -15 4 -15 6 0 9 -11 7 -25 -1 -14 2 -28 7 -31 4 -3 6 -10 3 -15 -4 -5 -2
-9 2 -9 5 0 9 -9 10 -20 1 -13 -2 -18 -9 -14 -7 5 -8 2 -2 -7 5 -8 10 -25 12
-38 2 -13 10 -30 18 -38 17 -18 18 -26 2 -18 -7 4 -6 1 3 -7 17 -14 19 -19 19
-44 0 -8 4 -13 9 -10 11 7 23 -22 15 -35 -3 -5 -1 -9 5 -9 5 0 15 -16 22 -35
7 -19 16 -35 20 -35 8 0 24 -40 21 -52 -1 -4 6 -4 15 -1 11 4 14 3 9 -5 -4 -7
-1 -15 8 -18 9 -3 13 -10 10 -15 -3 -5 3 -6 12 -2 12 4 15 3 10 -5 -4 -7 -1
-15 8 -18 9 -3 13 -10 10 -15 -3 -5 2 -9 10 -9 9 0 16 -5 16 -11 0 -5 4 -7 10
-4 5 3 10 -1 10 -9 0 -9 6 -16 14 -16 8 0 17 -7 20 -16 3 -9 11 -12 18 -8 7 4
10 4 6 -1 -10 -10 19 -65 35 -65 8 0 7 -4 -3 -10 -13 -8 -13 -10 2 -10 9 0 20
-5 24 -12 4 -7 3 -8 -4 -4 -7 4 -12 2 -12 -3 0 -6 5 -11 11 -11 6 0 9 -9 6
-20 -4 -14 0 -20 11 -20 13 0 14 -2 4 -9 -11 -6 -10 -10 3 -15 14 -5 15 -9 5
-21 -8 -10 -9 -15 -2 -15 6 0 9 -9 7 -20 -2 -11 1 -20 7 -20 6 0 8 -3 5 -7 -4
-3 -2 -12 4 -20 9 -10 8 -13 -1 -13 -9 0 -8 -5 3 -18 10 -10 17 -26 17 -34 0
-25 11 -48 20 -43 5 3 12 0 16 -6 4 -8 3 -9 -4 -5 -17 10 -15 1 8 -44 11 -22
20 -46 20 -55 0 -8 4 -15 10 -15 5 0 7 -6 4 -13 -3 -8 2 -20 11 -27 8 -7 15
-21 15 -31 0 -11 5 -19 10 -19 6 0 10 -5 10 -11 0 -5 -6 -7 -12 -4 -7 4 -4 -2
8 -12 11 -10 19 -23 17 -30 -2 -6 3 -18 12 -26 8 -9 15 -23 15 -31 0 -9 5 -16
10 -16 6 0 10 -7 10 -16 0 -9 6 -14 14 -11 9 4 12 -2 10 -19 -1 -15 3 -24 12
-24 8 0 19 -11 24 -25 5 -14 16 -28 25 -31 8 -3 12 -10 9 -15 -3 -5 2 -12 10
-15 9 -3 13 -10 10 -15 -3 -5 2 -9 10 -9 9 0 16 -6 16 -14 0 -7 13 -27 29 -44
16 -16 26 -34 23 -38 -4 -4 -1 -4 6 0 7 4 15 1 18 -8 3 -9 10 -13 15 -10 5 3
6 -3 2 -12 -5 -13 -3 -16 10 -11 11 4 14 2 11 -7 -3 -7 2 -16 10 -19 9 -4 16
-14 16 -22 0 -9 5 -13 10 -10 6 3 10 -2 10 -11 0 -10 3 -14 7 -11 3 4 17 -6
31 -21 14 -15 27 -26 29 -24 8 6 24 1 19 -6 -2 -4 5 -19 16 -32 11 -14 16 -18
12 -10 -7 13 -5 13 9 1 9 -7 14 -18 10 -24 -3 -5 -1 -7 5 -4 14 9 43 -3 36
-14 -3 -5 1 -9 9 -9 8 0 18 -7 21 -16 4 -10 14 -14 25 -11 11 3 22 -1 25 -8 2
-7 16 -12 30 -11 14 2 23 -1 20 -5 -5 -9 9 -13 35 -10 7 2 11 -2 7 -7 -3 -5 1
-9 9 -9 8 0 11 5 8 11 -4 6 1 5 10 -3 9 -7 26 -11 37 -8 12 3 24 -1 30 -11 5
-10 10 -12 10 -6 0 11 30 16 30 4 0 -9 163 -6 179 4 7 5 16 5 20 0 9 -13 34
-17 26 -4 -7 11 30 8 41 -3 4 -4 16 1 27 10 11 10 17 12 13 6 -4 -7 -2 -13 3
-13 6 0 11 4 11 9 0 6 9 8 21 6 15 -3 19 0 15 10 -3 9 1 12 14 10 10 -2 21 3
24 12 5 12 9 13 21 3 12 -10 16 -9 20 2 3 7 15 15 28 15 12 1 28 10 35 20 7
10 21 17 32 15 10 -2 22 2 26 9 5 8 3 9 -6 4 -9 -5 -11 -4 -6 4 4 6 12 9 17 6
5 -4 16 1 25 9 8 9 22 16 30 16 9 0 12 5 8 12 -5 8 -2 9 11 4 16 -6 16 -4 4
11 -9 11 -10 14 -1 9 7 -4 12 -2 12 4 0 6 5 8 10 5 6 -3 10 1 10 9 0 9 6 15
13 13 6 -1 11 4 10 10 -2 7 4 13 12 13 8 0 15 7 15 15 0 9 6 12 17 8 11 -4 14
-3 9 5 -4 7 -2 12 4 12 6 0 8 5 4 12 -5 8 -2 9 9 5 9 -3 16 -3 16 1 -3 19 2
33 10 28 9 -6 26 22 23 36 -1 4 6 4 15 1 10 -4 14 -2 10 4 -4 6 0 14 9 17 8 3
12 10 9 16 -3 6 1 7 10 4 10 -4 15 -2 13 7 -2 8 3 13 10 11 8 -1 11 2 7 7 -3
6 4 15 15 21 11 6 20 17 20 24 0 8 8 20 18 27 15 13 16 12 3 -4 -8 -9 -12 -20
-9 -23 3 -2 13 10 21 28 9 18 17 29 17 24 0 -6 12 6 26 25 14 19 30 33 35 32
5 -2 9 6 9 18 0 11 4 18 9 14 5 -3 12 4 16 15 3 11 11 20 17 20 6 0 8 3 5 6
-4 4 3 15 15 25 11 11 17 19 13 19 -5 0 0 7 11 15 10 8 15 15 9 15 -6 0 -6 3
0 8 16 11 50 66 47 75 -1 5 2 6 8 2 5 -3 12 1 15 9 3 9 8 24 12 34 3 9 5 20 5
24 -1 5 2 8 7 8 5 0 12 7 15 16 3 8 2 12 -4 9 -6 -3 -7 1 -4 9 3 9 9 14 13 11
17 -10 61 104 64 163 1 12 5 22 10 22 4 0 6 4 3 8 -2 4 4 43 14 87 11 44 19
92 20 107 0 45 20 75 59 90 20 8 39 14 43 14 4 -1 15 10 25 24 9 14 31 37 48
52 17 15 43 55 59 90 15 35 39 86 52 113 13 28 31 82 39 120 9 39 29 109 46
157 16 47 32 95 34 105 2 10 11 38 20 62 16 44 18 118 3 127 -5 3 -6 9 -3 14
13 20 -33 80 -60 80 -9 0 -23 7 -31 15 -20 19 -34 71 -24 81 5 5 10 38 11 74
2 60 12 98 29 110 4 3 15 20 24 38 9 18 28 38 43 45 22 10 24 16 20 50 -3 21
-13 47 -22 58 -31 34 -19 213 18 262 21 29 23 40 20 127 -1 52 -8 118 -14 145
-6 28 -12 75 -14 106 -1 37 -12 78 -30 115 -23 47 -29 76 -31 141 -2 45 -8
101 -15 125 -7 24 -13 54 -14 68 -1 33 19 95 32 95 12 0 73 57 73 68 0 5 -5 5
-11 2 -5 -4 -35 -8 -65 -10 -41 -2 -59 2 -76 17 -12 10 -28 16 -35 13 -8 -2
-11 0 -8 5 3 6 -3 10 -14 10 -12 0 -21 5 -21 11 0 5 -5 7 -12 3 -7 -4 -8 -3
-4 5 12 19 -19 40 -66 44 -9 1 -15 4 -12 8 6 11 -7 39 -16 34 -5 -3 -11 -1
-14 4 -4 5 -1 13 5 17 8 5 9 3 4 -6 -5 -9 -4 -11 3 -6 17 10 15 26 -3 26 -9 0
-25 9 -37 20 -14 13 -25 16 -33 10 -7 -6 -15 -6 -22 1 -6 6 -24 11 -41 11 -17
1 -29 5 -26 10 3 4 -4 8 -16 8 -14 0 -19 4 -14 13 4 6 4 9 -1 5 -4 -4 -20 -1
-35 7 -21 11 -30 11 -40 2 -10 -9 -11 -9 -6 1 7 11 -12 17 -37 13 -5 -1 -11 7
-14 18 -6 22 -29 35 -45 24 -6 -3 -9 -2 -6 3 3 5 -11 17 -31 27 -26 12 -30 13
-17 2 11 -8 15 -15 8 -15 -6 0 -17 9 -25 20 -8 11 -17 17 -20 13 -4 -3 -7 1
-7 11 0 9 -4 15 -8 12 -4 -2 -14 -1 -22 5 -13 7 -13 9 -1 9 9 0 7 6 -7 19 -12
10 -19 21 -15 25 3 3 0 6 -7 6 -7 0 -20 8 -29 18 -19 21 -50 30 -34 10 9 -10
5 -13 -18 -14 -16 -1 -26 3 -22 8 3 6 -7 2 -23 -8 -28 -18 -29 -18 -14 1 10
12 11 16 2 11 -8 -5 -21 1 -34 16 -11 12 -24 22 -28 21 -4 -1 -5 7 -2 19 3 14
1 19 -6 14 -7 -4 -12 -1 -12 6 0 7 -18 23 -40 35 -22 12 -38 17 -35 12 4 -5 1
-9 -4 -9 -6 0 -11 6 -11 13 0 8 -4 7 -10 -3 -7 -12 -10 -12 -10 -1 0 7 -6 11
-13 8 -8 -3 -20 -1 -27 3 -8 5 -22 4 -33 -2 -14 -7 -17 -7 -13 1 9 14 0 14
-27 -1 -20 -10 -21 -10 -8 5 7 10 9 17 3 17 -16 0 -22 -26 -9 -40 8 -9 9 -11
1 -7 -7 4 -17 0 -24 -8 -11 -13 -10 -14 6 -9 16 5 16 4 4 -5 -8 -6 -23 -11
-32 -11 -10 0 -18 -4 -18 -8 0 -4 -13 -8 -30 -7 -16 0 -30 4 -30 9 0 5 -3 6
-7 3 -3 -4 -12 2 -20 13 -8 12 -20 17 -30 13 -12 -5 -15 -2 -10 10 3 9 3 16
-1 16 -14 -2 -52 14 -52 22 0 4 -9 6 -20 4 -11 -2 -20 1 -20 6 0 6 -8 5 -21
-1 -19 -11 -20 -10 -10 9 10 17 9 20 -4 15 -8 -3 -17 0 -20 8 -8 20 -75 18
-76 -2 0 -10 -3 -9 -8 4 -7 18 -8 18 -14 2z"/>
<path d="M725 3070 c3 -5 8 -10 11 -10 2 0 4 5 4 10 0 6 -5 10 -11 10 -5 0 -7
-4 -4 -10z"/>
</g>
</svg>
